# xmcd
#
# Track frame offsets:
#	150
#	12354
#	31974
#	46329
#	66507
#	81850
#	94332
#	109407
#	121900
#	134700
#	147282
#	159905
#	173460
#	186786
#	201722
#	217232
#	230142
#	243455
#	261842
#	276513
#
# Disc length: 3871 seconds
#
# Revision: 1
# Processed by: cddbd v1.5.2PL0 Copyright (c) Steve Scherf et al.
# Submitted via: audiograbber 1.83.01
#
DISCID=3b0f1d14
DTITLE=Johnny Cash - Is Coming To Town and Water From Wells Home
DYEAR=1900
DGENRE=Country
TTITLE0=The Big Light
TTITLE1=The Ballad of Barbara
TTITLE2=I'd Rather Have You
TTITLE3=Let Him Roll
TTITLE4=The Night Hank Williams Came To Town
TTITLE5=Sixteen Tons
TTITLE6=Letters From Home
TTITLE7=W. Lee O Daniel (And The Light Crust Dough Boys)
TTITLE8=Heavy Metal (Don't Mean Rock And Roll To Me)
TTITLE9=My Ship Will Sail
TTITLE10=Ballad Of  A Teenage Queen
TTITLE11=As Long As I Live
TTITLE12=Where Did We Go Right
TTITLE13=The Last Of The Drifters
TTITLE14=Call Me The Breeze
TTITLE15=That Old Wheel
TTITLE16=Sweeter Than The Flowers
TTITLE17=A Croft Clachan (The Ballad of Rob MacDunn)
TTITLE18=New Moon Over Jamaica
TTITLE19=Water From The Wells Of Home
EXTD=
EXTT0=
EXTT1=
EXTT2=
EXTT3=
EXTT4=
EXTT5=
EXTT6=
EXTT7=
EXTT8=
EXTT9=
EXTT10=
EXTT11=
EXTT12=
EXTT13=
EXTT14=
EXTT15=
EXTT16=
EXTT17=
EXTT18=
EXTT19=
PLAYORDER=
